<?xml version="1.0" encoding="UTF-8"?>
<svg id="_레이어_1" data-name="레이어_1" xmlns="http://www.w3.org/2000/svg" xmlns:xlink="http://www.w3.org/1999/xlink" version="1.1" viewBox="0 0 569 146">
  <!-- Generator: Adobe Illustrator 29.2.0, SVG Export Plug-In . SVG Version: 2.1.0 Build 108)  -->
  <defs>
    <style>
      .st0 {
        fill: #568ecb;
      }

      .st1 {
        fill: #f5c04e;
      }

      .st2 {
        fill: url(#_무제_그라디언트_10);
      }

      .st3 {
        fill: #ed773e;
      }

      .st4 {
        fill: #549854;
      }
    </style>
    <linearGradient id="_무제_그라디언트_10" data-name="무제 그라디언트 10" x1="124.1" y1="70.4" x2="546.5" y2="70.4" gradientTransform="translate(0 148) scale(1 -1)" gradientUnits="userSpaceOnUse">
      <stop offset="0" stop-color="#4f69b0"/>
      <stop offset="0" stop-color="#4f69b0"/>
      <stop offset=".4" stop-color="#568ecb"/>
      <stop offset=".5" stop-color="#549854"/>
      <stop offset=".5" stop-color="#549854"/>
      <stop offset=".5" stop-color="#f5c04e"/>
      <stop offset=".6" stop-color="#f5c04e"/>
      <stop offset=".8" stop-color="#f4a749"/>
      <stop offset="1" stop-color="#ef8844"/>
    </linearGradient>
  </defs>
  <path class="st2" d="M190.4,33.4l-24.8,69.5h-16.8l-24.7-69.5h15.6l13.7,41.4c.3.7.6,2,1.1,4,.5,1.9,1.1,3.9,1.6,6,.5,2.1.9,3.8,1.1,5.3.2-1.4.5-3.2,1-5.3.5-2.1,1.1-4.2,1.6-6,.5-1.9.9-3.3,1.1-4l13.8-41.4h15.6ZM213.6,49.8v53.1h-15.2v-53.1h15.2ZM206,29c2.2,0,4.2.5,5.8,1.6,1.6,1,2.4,2.8,2.4,5.5s-.8,4.5-2.4,5.5-3.6,1.6-5.8,1.6-4.3-.5-5.9-1.6c-1.6-1-2.3-2.9-2.3-5.5s.8-4.6,2.3-5.5c1.6-1,3.6-1.6,5.9-1.6ZM252.9,92.3c1.7,0,3.3-.2,4.9-.5,1.6-.3,3.1-.7,4.7-1.2v10.8c-1.6.6-3.7,1.2-6.1,1.7-2.4.5-5,.8-7.9.8s-6.3-.5-9-1.6c-2.6-1-4.7-2.8-6.2-5.4-1.5-2.6-2.2-6.2-2.2-10.7v-25.6h-7.2v-6.1l8.4-4.9,4.4-11.2h9.7v11.3h15.6v10.9h-15.6v25.6c0,2,.6,3.5,1.8,4.6,1.2,1,2.8,1.5,4.8,1.5ZM296.6,48.7c7.5,0,13.2,1.6,17.1,4.7,4,3,6,7.8,6,14.1v35.4h-10.6l-3-7.2h-.4c-1.6,1.9-3.2,3.4-4.9,4.7-1.6,1.2-3.5,2.1-5.7,2.6-2.1.6-4.7.9-7.9.9s-6.2-.6-8.9-1.8c-2.6-1.2-4.6-3.1-6.1-5.5-1.5-2.5-2.2-5.7-2.2-9.5,0-5.6,2.1-9.8,6.2-12.5,4.1-2.7,10.4-4.2,18.7-4.5l9.7-.3v-2.3c0-2.8-.8-4.8-2.3-6.1-1.5-1.3-3.6-1.9-6.3-1.9s-5.4.4-8,1.2c-2.6.7-5.2,1.6-7.8,2.7l-5-9.8c3-1.5,6.3-2.7,9.9-3.5,3.7-.8,7.5-1.3,11.4-1.3ZM298.7,78.5c-4.9.1-8.3,1-10.2,2.5-1.9,1.6-2.9,3.6-2.9,6.1s.7,3.8,2,4.8c1.4.9,3.1,1.4,5.3,1.4,3.3,0,6-.9,8.3-2.7,2.2-1.9,3.4-4.5,3.4-7.9v-4.4l-5.9.2ZM346.5,102.9h-15.2V29h15.2v74ZM390.6,102.9h-15.4v-57.2h-19.8v-12.3h55v12.3h-19.8v57.2ZM446.5,48.8c.7,0,1.6,0,2.7,0s1.8.2,2.4.3l-1.1,13.6c-.5-.1-1.2-.2-2.1-.3-.9-.1-1.7-.2-2.3-.2-2,0-3.9.3-5.7.8-1.8.5-3.5,1.2-5,2.2-1.4,1-2.6,2.4-3.5,4.2-.8,1.7-1.2,3.8-1.2,6.3v27.1h-15.2v-53.1h11.5l2.2,9h.7c1.1-1.8,2.4-3.5,4.1-5,1.6-1.5,3.5-2.7,5.6-3.6,2.2-.9,4.5-1.4,6.9-1.4ZM475.9,49.8v53.1h-15.2v-53.1h15.2ZM468.3,29c2.2,0,4.2.5,5.8,1.6,1.6,1,2.4,2.8,2.4,5.5s-.8,4.5-2.4,5.5c-1.6,1-3.6,1.6-5.8,1.6s-4.3-.5-5.9-1.6c-1.6-1-1.3-2.9-1.3-5.5s-.2-4.6,1.3-5.5c1.6-1,3.6-1.6,5.9-1.6ZM520.8,48.8c6.3,0,11.3,2.3,15.2,7,3.9,4.6,5.8,11.4,5.8,20.4s-.9,11.1-2.8,15.3c-1.8,4.1-4.4,7.2-7.5,9.2-3.2,2.1-6.9,3.1-11.1,3.1s-5-.3-6.9-1c-1.9-.6-3.5-1.5-4.9-2.5-1.4-1-2.6-2.1-3.6-3.3h-.8c.3,1.2.5,2.5.6,3.9.1,1.3.2,2.6.2,3.9v21.4h-15.2V49.8h12.3l2.1,6.9h.7c1-1.4,2.2-2.7,3.7-3.9,1.4-1.2,3.1-2.2,5.1-2.9,2-.7,4.4-1.1,7-1.1ZM515.9,60.4c-2.7,0-4.8.5-6.3,1.6-1.6,1-2.7,2.6-3.5,4.8-.7,2.1-1.1,4.7-1.1,7.9v1.6c0,3.4.3,6.4,1,8.8.7,2.3,1.8,4.1,3.5,5.4s3.8,1.8,6.6,1.8,4.2-.6,5.7-1.8c1.5-1.2,2.6-3,3.4-5.4.7-2.4,1.1-5.3,1.1-8.8,0-5.2-.8-9.1-2.6-11.7-1.6-2.7-4.3-4-7.9-4Z"/>
  <g>
    <path class="st0" d="M40.5,29.9c-2.9,0-4.9,2-3.6,3.7l25.8,33.5h23.8l-28.6-37.2h-17.4Z"/>
    <path class="st3" d="M110.4,67.1l-27.5-35.8c-.7-.9-2-1.4-3.6-1.4h-21.3l28.6,37.2h23.8Z"/>
    <path class="st1" d="M79.3,104.3c1.5,0,2.9-.6,3.6-1.4l27.5-35.8h-23.8l-28.6,37.2h21.3Z"/>
    <path class="st4" d="M62.7,67.1l-25.8,33.5c-1.3,1.7.6,3.7,3.6,3.7h17.4l28.6-37.2h-23.8Z"/>
  </g>
</svg>